# Blender 4.0.0
# www.blender.org
mtllib pinkcube3.mtl
o PinkCube
v -4.018046 -5.490347 5.584166
v -3.752924 -5.577744 6.222891
v -6.256933 4.112681 4.861928
v -6.400983 3.918728 5.515631
v -4.231561 -6.296672 -4.459291
v -3.993205 -6.485679 -5.086473
v -6.310189 3.043581 -5.279142
v -6.801521 3.273568 -5.696122
v 6.404562 -3.051346 5.165451
v 6.580675 -2.770440 5.779305
v 4.166087 6.542383 4.443869
v 3.932204 6.735330 5.071387
v 5.981702 -3.926228 -5.077590
v 6.549739 -3.609817 -5.330477
v 3.789497 5.463351 -5.993504
v 3.855000 6.100103 -5.844063
v -7.085407 -10.240765 10.513945
v -7.040614 -10.497732 11.152889
v -11.383870 7.128232 9.209932
v -11.698490 7.137062 9.837049
v -7.488173 -11.762293 -8.437737
v -7.469521 -12.117942 -9.028894
v -11.713509 5.446394 -9.832452
v -12.200525 5.677163 -10.254034
v 11.782564 -5.605848 9.742087
v 12.131470 -5.517709 10.344399
v 7.487131 11.761608 8.438160
v 7.470563 12.118626 9.028474
v 11.241470 -7.172927 -9.345665
v 11.840891 -7.092366 -9.701315
v 6.971383 10.056037 -10.782619
v 7.154638 10.682462 -10.884214
v -3.972960 -5.249295 5.530381
v -6.256348 3.674799 4.862458
v -6.468380 2.873824 -5.114484
v -4.184993 -6.050270 -4.446561
v -3.852462 -5.992419 -4.810420
v -6.135849 2.931675 -5.478342
v 3.562328 5.382970 -5.881247
v 5.845716 -3.541123 -5.213324
v 6.193110 -3.427117 -4.877713
v 3.909723 5.496976 -5.545635
v 4.121756 6.297951 4.431307
v 6.405143 -2.626143 5.099229
v 6.072613 -2.683993 5.463087
v 3.789225 6.240100 4.795165
v -5.908952 3.788805 5.198069
v -3.625565 -5.135289 5.865992
v -3.764987 -6.277169 -4.437271
v 5.933190 -3.825874 -4.840176
v 6.145223 -3.024899 5.136766
v -3.552955 -5.476194 5.539671
v 3.489717 5.723876 -5.554925
v -6.208460 3.272580 -5.152021
v -5.996428 4.073555 4.824921
v 3.701750 6.524850 4.422017
v -7.150486 -10.084499 10.460269
v -11.468571 6.791741 9.197169
v -11.869541 5.277028 -9.670094
v -7.551456 -11.599212 -8.406995
v -7.218926 -11.541361 -8.770853
v -11.537011 5.334879 -10.033953
v 6.803090 9.970493 -10.795879
v 11.121175 -6.905747 -9.532780
v 11.468571 -6.791741 -9.197169
v 7.150486 10.084499 -10.460269
v 7.551456 11.599212 8.406995
v 11.869541 -5.277028 9.670094
v 11.537011 -5.334879 10.033953
v 7.218926 11.541361 8.770853
v -11.121175 6.905747 9.532780
v -6.803090 -9.970493 10.795879
v -7.131451 -11.826111 -8.397705
v 11.208651 -7.190497 -9.159632
v 11.609621 -5.675785 9.707632
v -6.730480 -10.311399 10.469559
v 6.730480 10.311399 -10.469559
v -11.609621 5.675785 -9.707632
v -11.208651 7.190497 9.159632
v 7.131451 11.826111 8.397705
v 6.979769 9.734896 -10.531670
v 4.099530 5.657720 -6.163772
v 6.460107 -3.568050 -5.473270
v 11.148689 -6.558371 -9.312202
v 6.782874 -3.090302 5.296653
v 11.648650 -5.450784 9.366782
v 11.261275 -6.914134 -8.860698
v 6.563741 -3.918103 -5.014437
v -3.645304 -5.694232 6.156400
v -6.474669 -9.999647 10.546125
v 11.243390 -5.521259 9.810041
v 6.377723 -3.160829 5.740000
v -6.985267 -9.713028 10.530122
v -4.161359 -5.415921 6.148868
v -6.521954 3.809918 5.458362
v -11.154122 6.579983 9.310674
v 3.824398 6.832664 4.999709
v 6.866431 11.534710 8.526015
v -10.828023 7.062289 9.261119
v -6.204951 4.297662 5.416371
v 7.385037 11.265910 8.540477
v 4.337018 6.554614 5.007233
v 6.697612 -2.671225 5.697739
v 11.553893 -5.027101 9.759925
v -7.285392 -11.601958 -8.090190
v -4.287723 -6.660901 -4.563620
v -4.068589 -5.833100 5.747469
v -6.898017 -10.138609 10.137290
v -6.632627 4.157265 5.003183
v -11.255810 6.921958 8.848023
v -11.642669 5.460557 -9.355186
v -6.851899 3.328941 -5.314410
v -11.559566 5.048924 -9.761465
v -6.759266 2.913068 -5.712650
v -4.398689 -6.312701 -5.022149
v -7.390646 -11.244343 -8.541998
v 6.140419 -4.056983 -5.423381
v 10.838057 -7.053078 -9.269727
v -6.880269 -11.531532 -8.533631
v -3.882535 -6.590368 -5.006984
v -11.233351 5.531796 -9.803261
v -6.442465 3.400129 -5.762388
v 3.586807 5.935112 -6.179048
v 6.461395 10.004292 -10.538378
v 6.889041 10.144602 -10.125073
v 4.014522 6.075520 -5.765848
v 4.233793 6.903843 4.551745
v 7.275900 11.606003 8.078135
vn 0.9715 0.2346 -0.0339
vn -0.9660 -0.2558 0.0381
vn 0.9686 -0.2484 0.0103
vn -0.7979 -0.5994 0.0640
vn 0.8649 0.2424 0.4395
vn -0.9600 -0.2535 0.1185
vn 0.9827 -0.1853 -0.0060
vn -0.8804 -0.4708 0.0565
vn 0.6502 0.2146 0.7289
vn 0.5096 0.0803 -0.8567
vn 0.1587 -0.4426 0.8825
vn 0.0155 -0.1628 -0.9865
vn 0.0099 0.0886 0.9960
vn -0.0331 -0.0721 -0.9969
vn -0.1040 0.5980 0.7947
vn -0.1495 0.4619 -0.8743
vn -0.8226 -0.1537 0.5475
vn 0.8395 0.2547 0.4800
vn -0.9683 -0.2445 0.0504
vn 0.9709 0.2377 -0.0298
vn -0.9713 -0.2376 -0.0058
vn 0.9658 0.2550 -0.0464
vn -0.9750 0.2218 0.0122
vn 0.5441 0.8360 -0.0713
vn -0.6700 -0.2169 -0.7100
vn -0.6298 -0.1111 0.7688
vn 0.1510 -0.7340 -0.6622
vn 0.1944 -0.6163 0.7631
vn 0.6353 0.0976 -0.7661
vn 0.6612 0.2303 0.7140
vn -0.1828 0.6244 -0.7594
vn -0.1632 0.7288 0.6650
vn -0.2380 0.9691 -0.0642
vn 0.2561 -0.9633 0.0809
vn 0.3276 0.9407 -0.0883
vn 0.3993 -0.9144 0.0665
vn -0.2392 0.9609 -0.1396
vn 0.2560 -0.9644 0.0658
vn -0.0379 0.9961 -0.0792
vn 0.5884 -0.8069 0.0523
vn 0.2110 -0.7014 0.6808
vn -0.2126 0.8670 0.4506
vn 0.4478 -0.8908 0.0769
vn -0.1611 0.9850 -0.0626
vn 0.2385 -0.9656 0.1037
vn -0.2565 0.9637 -0.0734
vn -0.2537 -0.9625 0.0960
vn -0.6887 0.7240 -0.0402
vn 0.3790 0.0260 -0.9250
vn -0.9611 -0.2574 -0.0997
vn 0.9049 -0.4252 0.0184
vn -0.7951 -0.6031 0.0645
vn 0.6414 0.2181 0.7356
vn -0.9479 -0.2317 0.2186
vn 0.9279 0.3694 -0.0494
vn -0.9794 -0.1988 0.0368
vn 0.7232 0.2320 0.6505
vn 0.4519 0.0540 -0.8904
vn 0.2097 -0.7164 0.6654
vn 0.0339 -0.2714 -0.9619
vn -0.6056 -0.0899 0.7907
vn -0.1778 -0.1152 -0.9773
vn -0.1553 0.7422 0.6519
vn -0.1409 0.4156 -0.8986
vn -0.6978 -0.1198 0.7062
vn 0.8647 0.2552 0.4325
vn -0.5550 -0.8276 0.0833
vn 0.9971 0.0727 -0.0240
vn -0.4186 -0.1721 -0.8917
vn 0.9546 0.2346 -0.1838
vn -0.9141 0.4054 -0.0102
vn 0.6585 0.7492 -0.0712
vn -0.7597 -0.2365 -0.6057
vn -0.5314 -0.0752 0.8438
vn 0.1806 -0.8158 -0.5494
vn 0.1675 -0.5162 0.8399
vn 0.7309 0.1337 -0.6692
vn 0.5698 0.2076 0.7951
vn -0.2064 0.7184 -0.6644
vn -0.1331 0.6425 0.7547
vn -0.1784 0.8163 0.5495
vn 0.2503 -0.9432 0.2186
vn -0.4292 0.9010 -0.0625
vn 0.2103 -0.9748 0.0737
vn -0.1267 0.3554 -0.9261
vn 0.2455 -0.9675 -0.0601
vn 0.1845 0.9794 -0.0825
vn 0.5955 -0.8017 0.0517
vn 0.1916 -0.6275 0.7547
vn -0.2153 0.8974 0.3851
vn 0.7160 -0.6967 0.0449
vn -0.0570 0.9956 -0.0747
vn 0.0875 -0.4945 -0.8648
vn -0.2512 0.9466 -0.2019
vn -0.4399 -0.8939 0.0862
vn -0.6480 0.7603 -0.0459
vn -0.0937 -0.6913 -0.7165
vn 0.8109 0.0544 0.5827
vn -0.4803 -0.1913 -0.8560
vn 0.9603 0.2624 0.0944
vn -0.6428 -0.0302 -0.7655
vn 0.6147 0.7772 0.1345
vn -0.9686 -0.2465 -0.0332
vn 0.5775 0.2058 0.7900
vn -0.0377 -0.8873 -0.4597
vn 0.5835 0.7739 -0.2462
vn -0.9598 -0.2769 0.0464
vn 0.2340 0.9688 -0.0810
vn -0.1027 -0.8453 0.5244
vn 0.7095 0.5722 0.4113
vn -0.0489 -0.9953 0.0840
vn 0.9419 0.3340 -0.0370
vn 0.3533 -0.7727 -0.5273
vn 0.5132 0.4174 0.7500
vn -0.1174 0.3153 -0.9417
vn -0.2061 0.8753 0.4375
vn -0.2406 -0.9383 -0.2483
vn -0.5248 0.2856 0.8019
vn 0.2119 -0.9246 -0.3166
vn 0.0990 -0.2211 0.9702
vn -0.9096 0.2529 -0.3298
vn 0.1990 0.6280 0.7523
vn -0.8980 -0.2467 -0.3643
vn -0.2399 0.0083 0.9708
vn -0.7167 -0.4240 -0.5538
vn 0.3830 -0.4591 0.8016
vn 0.3348 0.0136 -0.9422
vn 0.8360 0.2538 0.4866
vn -0.3648 0.6997 -0.6143
vn -0.4496 -0.3242 0.8323
vn 0.0729 -0.4409 -0.8946
vn 0.2293 -0.8045 0.5480
vn 0.2085 0.8987 -0.3859
vn 0.5616 -0.1731 0.8091
vn -0.2293 0.8718 -0.4330
vn -0.0513 0.3458 0.9369
vn 0.8885 -0.3226 -0.3262
vn -0.1821 -0.5065 0.8428
vn 0.8803 0.1823 -0.4380
vn 0.2874 0.1475 0.9464
vn 0.6961 0.3215 -0.6419
vn -0.3317 0.5806 0.7436
vn -0.3726 -0.1622 -0.9137
vn -0.8116 -0.1694 0.5590
vn -0.8202 0.0850 0.5657
vn 0.7662 -0.6106 0.2002
vn -0.9887 0.1500 0.0090
vn 0.5785 -0.8140 0.0531
vn -0.8435 -0.0035 -0.5371
vn 0.7592 -0.6372 -0.1325
vn -0.5602 0.8266 -0.0545
vn 0.9370 -0.3491 0.0081
vn -0.0096 0.8117 -0.5840
vn -0.5691 -0.8170 -0.0927
vn 0.7143 0.6960 -0.0725
vn -0.3889 -0.9179 0.0790
vn 0.4699 0.8777 -0.0942
vn -0.4526 -0.8891 0.0674
vn 0.3276 0.9404 -0.0916
vn -0.7347 -0.6750 0.0674
vn -0.6716 -0.1259 0.7302
vn 0.6688 0.1080 -0.7356
vn -0.8299 -0.1548 0.5360
vn -0.0837 -0.0908 -0.9923
vn -0.8958 0.3053 0.3231
vn 0.1653 0.4995 -0.8504
vn 0.0840 0.0984 0.9916
vn 0.7761 0.1589 -0.6102
vn -0.3068 -0.8983 0.3145
vn -0.3355 0.4974 -0.8000
vn 0.0362 0.0358 0.9987
vn -0.2185 0.7608 -0.6111
vn 0.3778 -0.6801 0.6282
vn 0.4793 0.2913 -0.8279
vn 0.2262 -0.8238 0.5199
vn -0.0448 0.0485 -0.9978
vn 0.1756 -0.7693 -0.6142
vn -0.1645 0.7786 0.6056
vn 0.1029 -0.5993 -0.7938
vn -0.2519 0.9563 -0.1486
vn -0.3774 -0.5347 -0.7561
vn -0.6363 0.7288 0.2529
vn 0.2460 -0.9584 0.1448
vn -0.1426 0.6632 0.7347
vn 0.8874 -0.4202 0.1896
vn -0.3715 0.7918 0.4848
vn 0.9578 -0.2876 -0.0011
vn -0.3490 0.9352 -0.0596
vn 0.8241 -0.1068 -0.5563
vn -0.7442 0.6363 -0.2031
vn 0.2924 -0.9535 0.0736
vn -0.9149 0.4034 -0.0138
vt 0.375000 0.000000
vt 0.625000 0.000000
vt 0.625000 0.250000
vt 0.375000 0.250000
vt 0.625000 0.500000
vt 0.375000 0.500000
vt 0.625000 0.750000
vt 0.375000 0.750000
vt 0.625000 1.000000
vt 0.375000 1.000000
vt 0.125000 0.500000
vt 0.125000 0.750000
vt 0.875000 0.500000
vt 0.875000 0.750000
vt 0.000000 0.000000
s 0
usemtl Material.002
f 33/1/1 34/2/1 3/2/1 1/1/1
f 34/2/2 33/1/2 2/1/2 4/2/2
f 34/2/3 35/3/3 7/3/3 3/2/3
f 35/3/4 34/2/4 4/2/4 8/3/4
f 35/3/5 36/4/5 5/4/5 7/3/5
f 36/4/6 35/3/6 8/3/6 6/4/6
f 36/4/7 33/1/7 1/1/7 5/4/7
f 33/1/8 36/4/8 6/4/8 2/1/8
f 37/4/9 38/3/9 7/3/9 5/4/9
f 38/3/10 37/4/10 6/4/10 8/3/10
f 38/3/11 39/5/11 15/5/11 7/3/11
f 39/5/12 38/3/12 8/3/12 16/5/12
f 39/5/13 40/6/13 13/6/13 15/5/13
f 40/6/14 39/5/14 16/5/14 14/6/14
f 40/6/15 37/4/15 5/4/15 13/6/15
f 37/4/16 40/6/16 14/6/16 6/4/16
f 41/6/17 42/5/17 15/5/17 13/6/17
f 42/5/18 41/6/18 14/6/18 16/5/18
f 42/5/19 43/7/19 11/7/19 15/5/19
f 43/7/20 42/5/20 16/5/20 12/7/20
f 43/7/21 44/8/21 9/8/21 11/7/21
f 44/8/22 43/7/22 12/7/22 10/8/22
f 44/8/23 41/6/23 13/6/23 9/8/23
f 41/6/24 44/8/24 10/8/24 14/6/24
f 45/8/25 46/7/25 11/7/25 9/8/25
f 46/7/26 45/8/26 10/8/26 12/7/26
f 46/7/27 47/9/27 3/9/27 11/7/27
f 47/9/28 46/7/28 12/7/28 4/9/28
f 47/9/29 48/10/29 1/10/29 3/9/29
f 48/10/30 47/9/30 4/9/30 2/10/30
f 48/10/31 45/8/31 9/8/31 1/10/31
f 45/8/32 48/10/32 2/10/32 10/8/32
f 49/11/33 50/6/33 13/6/33 5/11/33
f 50/6/34 49/11/34 6/11/34 14/6/34
f 50/6/35 51/8/35 9/8/35 13/6/35
f 51/8/36 50/6/36 14/6/36 10/8/36
f 51/8/37 52/12/37 1/12/37 9/8/37
f 52/12/38 51/8/38 10/8/38 2/12/38
f 52/12/39 49/11/39 5/11/39 1/12/39
f 49/11/40 52/12/40 2/12/40 6/11/40
f 53/5/41 54/13/41 7/13/41 15/5/41
f 54/13/42 53/5/42 16/5/42 8/13/42
f 54/13/43 55/14/43 3/14/43 7/13/43
f 55/14/44 54/13/44 8/13/44 4/14/44
f 55/14/45 56/7/45 11/7/45 3/14/45
f 56/7/46 55/14/46 4/14/46 12/7/46
f 56/7/47 53/5/47 15/5/47 11/7/47
f 53/5/48 56/7/48 12/7/48 16/5/48
f 57/1/49 58/2/49 19/2/49 17/1/49
f 58/2/50 57/1/50 18/1/50 20/2/50
f 58/2/51 59/3/51 23/3/51 19/2/51
f 59/3/52 58/2/52 20/2/52 24/3/52
f 59/3/53 60/4/53 21/4/53 23/3/53
f 60/4/54 59/3/54 24/3/54 22/4/54
f 60/4/55 57/1/55 17/1/55 21/4/55
f 57/1/56 60/4/56 22/4/56 18/1/56
f 61/4/57 62/3/57 23/3/57 21/4/57
f 62/3/58 61/4/58 22/4/58 24/3/58
f 62/3/59 63/5/59 31/5/59 23/3/59
f 63/5/60 62/3/60 24/3/60 32/5/60
f 63/5/61 64/6/61 29/6/61 31/5/61
f 64/6/62 63/5/62 32/5/62 30/6/62
f 64/6/63 61/4/63 21/4/63 29/6/63
f 61/4/64 64/6/64 30/6/64 22/4/64
f 65/6/65 66/5/65 31/5/65 29/6/65
f 66/5/66 65/6/66 30/6/66 32/5/66
f 66/5/67 67/7/67 27/7/67 31/5/67
f 67/7/68 66/5/68 32/5/68 28/7/68
f 67/7/69 68/8/69 25/8/69 27/7/69
f 68/8/70 67/7/70 28/7/70 26/8/70
f 68/8/71 65/6/71 29/6/71 25/8/71
f 65/6/72 68/8/72 26/8/72 30/6/72
f 69/8/73 70/7/73 27/7/73 25/8/73
f 70/7/74 69/8/74 26/8/74 28/7/74
f 70/7/75 71/9/75 19/9/75 27/7/75
f 71/9/76 70/7/76 28/7/76 20/9/76
f 71/9/77 72/10/77 17/10/77 19/9/77
f 72/10/78 71/9/78 20/9/78 18/10/78
f 72/10/79 69/8/79 25/8/79 17/10/79
f 69/8/80 72/10/80 18/10/80 26/8/80
f 73/11/81 74/6/81 29/6/81 21/11/81
f 74/6/82 73/11/82 22/11/82 30/6/82
f 74/6/83 75/8/83 25/8/83 29/6/83
f 75/8/84 74/6/84 30/6/84 26/8/84
f 75/8/85 76/12/85 17/12/85 25/8/85
f 76/12/86 75/8/86 26/8/86 18/12/86
f 76/12/87 73/11/87 21/11/87 17/12/87
f 73/11/88 76/12/88 18/12/88 22/11/88
f 77/5/89 78/13/89 23/13/89 31/5/89
f 78/13/90 77/5/90 32/5/90 24/13/90
f 78/13/91 79/14/91 19/14/91 23/13/91
f 79/14/92 78/13/92 24/13/92 20/14/92
f 79/14/93 80/7/93 27/7/93 19/14/93
f 80/7/94 79/14/94 20/14/94 28/7/94
f 80/7/95 77/5/95 31/5/95 27/7/95
f 77/5/96 80/7/96 28/7/96 32/5/96
f 81/15/97 82/15/97 15/15/97 31/15/97
f 82/15/98 81/15/98 32/15/98 16/15/98
f 82/15/99 83/15/99 13/15/99 15/15/99
f 83/15/100 82/15/100 16/15/100 14/15/100
f 83/15/101 84/15/101 29/15/101 13/15/101
f 84/15/102 83/15/102 14/15/102 30/15/102
f 84/15/103 81/15/103 31/15/103 29/15/103
f 81/15/104 84/15/104 30/15/104 32/15/104
f 85/15/105 86/15/105 25/15/105 9/15/105
f 86/15/106 85/15/106 10/15/106 26/15/106
f 86/15/107 87/15/107 29/15/107 25/15/107
f 87/15/108 86/15/108 26/15/108 30/15/108
f 87/15/109 88/15/109 13/15/109 29/15/109
f 88/15/110 87/15/110 30/15/110 14/15/110
f 88/15/111 85/15/111 9/15/111 13/15/111
f 85/15/112 88/15/112 14/15/112 10/15/112
f 89/15/113 90/15/113 17/15/113 1/15/113
f 90/15/114 89/15/114 2/15/114 18/15/114
f 90/15/115 91/15/115 25/15/115 17/15/115
f 91/15/116 90/15/116 18/15/116 26/15/116
f 91/15/117 92/15/117 9/15/117 25/15/117
f 92/15/118 91/15/118 26/15/118 10/15/118
f 92/15/119 89/15/119 1/15/119 9/15/119
f 89/15/120 92/15/120 10/15/120 2/15/120
f 93/15/121 94/15/121 1/15/121 17/15/121
f 94/15/122 93/15/122 18/15/122 2/15/122
f 94/15/123 95/15/123 3/15/123 1/15/123
f 95/15/124 94/15/124 2/15/124 4/15/124
f 95/15/125 96/15/125 19/15/125 3/15/125
f 96/15/126 95/15/126 4/15/126 20/15/126
f 96/15/127 93/15/127 17/15/127 19/15/127
f 93/15/128 96/15/128 20/15/128 18/15/128
f 97/15/129 98/15/129 27/15/129 11/15/129
f 98/15/130 97/15/130 12/15/130 28/15/130
f 98/15/131 99/15/131 19/15/131 27/15/131
f 99/15/132 98/15/132 28/15/132 20/15/132
f 99/15/133 100/15/133 3/15/133 19/15/133
f 100/15/134 99/15/134 20/15/134 4/15/134
f 100/15/135 97/15/135 11/15/135 3/15/135
f 97/15/136 100/15/136 4/15/136 12/15/136
f 101/15/137 102/15/137 11/15/137 27/15/137
f 102/15/138 101/15/138 28/15/138 12/15/138
f 102/15/139 103/15/139 9/15/139 11/15/139
f 103/15/140 102/15/140 12/15/140 10/15/140
f 103/15/141 104/15/141 25/15/141 9/15/141
f 104/15/142 103/15/142 10/15/142 26/15/142
f 104/15/143 101/15/143 27/15/143 25/15/143
f 101/15/144 104/15/144 26/15/144 28/15/144
f 105/15/145 106/15/145 5/15/145 21/15/145
f 106/15/146 105/15/146 22/15/146 6/15/146
f 106/15/147 107/15/147 1/15/147 5/15/147
f 107/15/148 106/15/148 6/15/148 2/15/148
f 107/15/149 108/15/149 17/15/149 1/15/149
f 108/15/150 107/15/150 2/15/150 18/15/150
f 108/15/151 105/15/151 21/15/151 17/15/151
f 105/15/152 108/15/152 18/15/152 22/15/152
f 109/15/153 110/15/153 19/15/153 3/15/153
f 110/15/154 109/15/154 4/15/154 20/15/154
f 110/15/155 111/15/155 23/15/155 19/15/155
f 111/15/156 110/15/156 20/15/156 24/15/156
f 111/15/157 112/15/157 7/15/157 23/15/157
f 112/15/158 111/15/158 24/15/158 8/15/158
f 112/15/159 109/15/159 3/15/159 7/15/159
f 109/15/160 112/15/160 8/15/160 4/15/160
f 113/15/161 114/15/161 7/15/161 23/15/161
f 114/15/162 113/15/162 24/15/162 8/15/162
f 114/15/163 115/15/163 5/15/163 7/15/163
f 115/15/164 114/15/164 8/15/164 6/15/164
f 115/15/165 116/15/165 21/15/165 5/15/165
f 116/15/166 115/15/166 6/15/166 22/15/166
f 116/15/167 113/15/167 23/15/167 21/15/167
f 113/15/168 116/15/168 22/15/168 24/15/168
f 117/15/169 118/15/169 29/15/169 13/15/169
f 118/15/170 117/15/170 14/15/170 30/15/170
f 118/15/171 119/15/171 21/15/171 29/15/171
f 119/15/172 118/15/172 30/15/172 22/15/172
f 119/15/173 120/15/173 5/15/173 21/15/173
f 120/15/174 119/15/174 22/15/174 6/15/174
f 120/15/175 117/15/175 13/15/175 5/15/175
f 117/15/176 120/15/176 6/15/176 14/15/176
f 121/15/177 122/15/177 7/15/177 23/15/177
f 122/15/178 121/15/178 24/15/178 8/15/178
f 122/15/179 123/15/179 15/15/179 7/15/179
f 123/15/180 122/15/180 8/15/180 16/15/180
f 123/15/181 124/15/181 31/15/181 15/15/181
f 124/15/182 123/15/182 16/15/182 32/15/182
f 124/15/183 121/15/183 23/15/183 31/15/183
f 121/15/184 124/15/184 32/15/184 24/15/184
f 125/15/185 126/15/185 15/15/185 31/15/185
f 126/15/186 125/15/186 32/15/186 16/15/186
f 126/15/187 127/15/187 11/15/187 15/15/187
f 127/15/188 126/15/188 16/15/188 12/15/188
f 127/15/189 128/15/189 27/15/189 11/15/189
f 128/15/190 127/15/190 12/15/190 28/15/190
f 128/15/191 125/15/191 31/15/191 27/15/191
f 125/15/192 128/15/192 28/15/192 32/15/192
